<svg width="32" height="32" viewBox="0 0 32 32" xmlns="http://www.w3.org/2000/svg"><path d="M15.63 28.5c.938 0 1.87-.109 2.794-.326.925-.218 1.66-.504 2.204-.86l-.509-1.824c-.572.302-1.266.542-2.084.72a11.08 11.08 0 0 1-2.352.265c-1.85 0-3.415-.404-4.697-1.212-1.282-.808-2.234-1.986-2.855-3.536-.62-1.55-.877-3.394-.77-5.534.08-2.104.518-3.98 1.313-5.627.795-1.647 1.87-2.906 3.223-3.776 1.354-.87 2.906-1.305 4.657-1.305 2.86 0 5.001.87 6.426 2.61 1.426 1.74 2.062 4.249 1.91 7.525-.053 1.545-.373 2.804-.958 3.776-.585.973-1.333 1.459-2.245 1.459-1.188 0-1.697-.88-1.528-2.637l.697-7.499c-.777-.586-1.454-.972-2.03-1.159-.576-.186-1.24-.28-1.99-.28-.983 0-1.91.318-2.781.953-.871.635-1.59 1.534-2.158 2.697-.567 1.163-.922 2.468-1.065 3.916-.161 1.785.096 3.21.77 4.275.675 1.066 1.664 1.598 2.969 1.598a3.83 3.83 0 0 0 1.896-.506c.603-.337 1.133-.843 1.588-1.518.545 1.367 1.626 2.051 3.244 2.051 1.697 0 3.042-.641 4.033-1.924.992-1.284 1.542-3.035 1.649-5.255.107-2.45-.237-4.588-1.032-6.413-.795-1.825-1.995-3.223-3.598-4.196-1.604-.972-3.518-1.458-5.743-1.458-2.198 0-4.157.537-5.877 1.612-1.72 1.074-3.075 2.581-4.067 4.521s-1.541 4.127-1.649 6.56c-.098 2.61.273 4.853 1.113 6.726.813 1.812 2.032 3.195 3.658 4.15 1.627.954 3.574 1.431 5.844 1.431Zm-.268-7.965c-.724 0-1.251-.313-1.582-.939-.33-.626-.438-1.543-.321-2.75.17-1.812.567-3.181 1.192-4.11.626-.927 1.434-1.391 2.426-1.391.42 0 .853.084 1.3.253l-.603 6.566c-.268.737-.617 1.317-1.045 1.739-.43.421-.885.632-1.367.632Z" fill-rule="evenodd"/></svg>